<mxfile host="app.diagrams.net" agent="Mozilla/5.0 (Windows NT 10.0; Win64; x64; rv:143.0) Gecko/20100101 Firefox/143.0" version="28.2.8">
  <diagram name="Página-1" id="uW_HhE_EvmZPlbf-FYYJ">
    <mxGraphModel grid="1" page="1" gridSize="10" guides="1" tooltips="1" connect="1" arrows="1" fold="1" pageScale="1" pageWidth="827" pageHeight="1169" math="0" shadow="0">
      <root>
        <mxCell id="0" />
        <mxCell id="1" parent="0" />
        <mxCell id="6so-qmD7fdGU7Z9m0W5g-2" value="" style="rounded=0;whiteSpace=wrap;html=1;fillColor=none;strokeWidth=3;strokeColor=light-dark(#000000,#0000FF);" vertex="1" parent="1">
          <mxGeometry x="74" y="-1160" width="680" height="770" as="geometry" />
        </mxCell>
        <mxCell id="piwmQqDmo6Rh2XkabMkD-4" style="edgeStyle=orthogonalEdgeStyle;rounded=1;orthogonalLoop=1;jettySize=auto;html=1;exitX=0.5;exitY=0;exitDx=0;exitDy=0;exitPerimeter=0;entryX=0;entryY=0.5;entryDx=0;entryDy=0;strokeColor=default;align=center;verticalAlign=middle;fontFamily=Helvetica;fontSize=11;fontColor=default;labelBackgroundColor=default;endArrow=none;endFill=0;curved=0;" edge="1" parent="1" source="6so-qmD7fdGU7Z9m0W5g-3" target="6so-qmD7fdGU7Z9m0W5g-15">
          <mxGeometry relative="1" as="geometry">
            <Array as="points">
              <mxPoint x="49" y="-920" />
              <mxPoint x="100" y="-920" />
              <mxPoint x="100" y="-710" />
            </Array>
          </mxGeometry>
        </mxCell>
        <mxCell id="piwmQqDmo6Rh2XkabMkD-5" style="edgeStyle=orthogonalEdgeStyle;rounded=1;orthogonalLoop=1;jettySize=auto;html=1;exitX=0.5;exitY=0;exitDx=0;exitDy=0;exitPerimeter=0;entryX=0;entryY=0.5;entryDx=0;entryDy=0;strokeColor=default;align=center;verticalAlign=middle;fontFamily=Helvetica;fontSize=11;fontColor=default;labelBackgroundColor=default;endArrow=none;endFill=0;curved=0;" edge="1" parent="1" source="6so-qmD7fdGU7Z9m0W5g-3" target="6so-qmD7fdGU7Z9m0W5g-13">
          <mxGeometry relative="1" as="geometry">
            <Array as="points">
              <mxPoint x="49" y="-920" />
              <mxPoint x="100" y="-920" />
              <mxPoint x="100" y="-460" />
            </Array>
          </mxGeometry>
        </mxCell>
        <mxCell id="piwmQqDmo6Rh2XkabMkD-16" style="edgeStyle=orthogonalEdgeStyle;rounded=1;orthogonalLoop=1;jettySize=auto;html=1;exitX=0.5;exitY=0;exitDx=0;exitDy=0;exitPerimeter=0;entryX=0;entryY=0.5;entryDx=0;entryDy=0;strokeColor=default;align=center;verticalAlign=middle;fontFamily=Helvetica;fontSize=11;fontColor=default;labelBackgroundColor=default;endArrow=none;endFill=0;curved=0;" edge="1" parent="1" source="6so-qmD7fdGU7Z9m0W5g-3" target="piwmQqDmo6Rh2XkabMkD-6">
          <mxGeometry relative="1" as="geometry">
            <Array as="points">
              <mxPoint x="49" y="-920" />
              <mxPoint x="100" y="-920" />
              <mxPoint x="100" y="-555" />
            </Array>
          </mxGeometry>
        </mxCell>
        <mxCell id="piwmQqDmo6Rh2XkabMkD-19" style="edgeStyle=orthogonalEdgeStyle;rounded=1;orthogonalLoop=1;jettySize=auto;html=1;exitX=0.5;exitY=0;exitDx=0;exitDy=0;exitPerimeter=0;entryX=0;entryY=0.5;entryDx=0;entryDy=0;strokeColor=default;align=center;verticalAlign=middle;fontFamily=Helvetica;fontSize=11;fontColor=default;labelBackgroundColor=default;endArrow=none;endFill=0;curved=0;" edge="1" parent="1" source="6so-qmD7fdGU7Z9m0W5g-3" target="piwmQqDmo6Rh2XkabMkD-2">
          <mxGeometry relative="1" as="geometry">
            <Array as="points">
              <mxPoint x="49" y="-920" />
              <mxPoint x="100" y="-920" />
              <mxPoint x="100" y="-770" />
            </Array>
          </mxGeometry>
        </mxCell>
        <mxCell id="piwmQqDmo6Rh2XkabMkD-27" style="edgeStyle=orthogonalEdgeStyle;rounded=1;orthogonalLoop=1;jettySize=auto;html=1;exitX=0.5;exitY=0;exitDx=0;exitDy=0;exitPerimeter=0;entryX=0;entryY=0.5;entryDx=0;entryDy=0;strokeColor=default;align=center;verticalAlign=middle;fontFamily=Helvetica;fontSize=11;fontColor=default;labelBackgroundColor=default;endArrow=none;endFill=0;" edge="1" parent="1" source="6so-qmD7fdGU7Z9m0W5g-3" target="6so-qmD7fdGU7Z9m0W5g-8">
          <mxGeometry relative="1" as="geometry">
            <Array as="points">
              <mxPoint x="49" y="-920" />
              <mxPoint x="144" y="-920" />
            </Array>
          </mxGeometry>
        </mxCell>
        <mxCell id="piwmQqDmo6Rh2XkabMkD-28" style="edgeStyle=orthogonalEdgeStyle;rounded=1;orthogonalLoop=1;jettySize=auto;html=1;exitX=0.5;exitY=0;exitDx=0;exitDy=0;exitPerimeter=0;entryX=0;entryY=0.5;entryDx=0;entryDy=0;strokeColor=default;align=center;verticalAlign=middle;fontFamily=Helvetica;fontSize=11;fontColor=default;labelBackgroundColor=default;endArrow=none;endFill=0;curved=0;" edge="1" parent="1" source="6so-qmD7fdGU7Z9m0W5g-3" target="piwmQqDmo6Rh2XkabMkD-24">
          <mxGeometry relative="1" as="geometry" />
        </mxCell>
        <mxCell id="piwmQqDmo6Rh2XkabMkD-29" style="edgeStyle=orthogonalEdgeStyle;rounded=1;orthogonalLoop=1;jettySize=auto;html=1;exitX=0.5;exitY=0;exitDx=0;exitDy=0;exitPerimeter=0;entryX=0;entryY=0.5;entryDx=0;entryDy=0;strokeColor=default;align=center;verticalAlign=middle;fontFamily=Helvetica;fontSize=11;fontColor=default;labelBackgroundColor=default;endArrow=none;endFill=0;curved=0;" edge="1" parent="1" source="6so-qmD7fdGU7Z9m0W5g-3" target="piwmQqDmo6Rh2XkabMkD-26">
          <mxGeometry relative="1" as="geometry" />
        </mxCell>
        <mxCell id="piwmQqDmo6Rh2XkabMkD-31" style="edgeStyle=orthogonalEdgeStyle;rounded=1;orthogonalLoop=1;jettySize=auto;html=1;exitX=0.5;exitY=0;exitDx=0;exitDy=0;exitPerimeter=0;entryX=0;entryY=0.5;entryDx=0;entryDy=0;strokeColor=default;align=center;verticalAlign=middle;fontFamily=Helvetica;fontSize=11;fontColor=default;labelBackgroundColor=default;endArrow=none;endFill=0;curved=0;" edge="1" parent="1" source="6so-qmD7fdGU7Z9m0W5g-3" target="piwmQqDmo6Rh2XkabMkD-25">
          <mxGeometry relative="1" as="geometry" />
        </mxCell>
        <mxCell id="6so-qmD7fdGU7Z9m0W5g-3" value="Usuário" style="shape=umlActor;verticalLabelPosition=bottom;verticalAlign=top;html=1;outlineConnect=0;fillColor=#f8cecc;strokeColor=#b85450;" vertex="1" parent="1">
          <mxGeometry x="34" y="-900" width="30" height="60" as="geometry" />
        </mxCell>
        <mxCell id="6so-qmD7fdGU7Z9m0W5g-23" style="edgeStyle=orthogonalEdgeStyle;rounded=1;orthogonalLoop=1;jettySize=auto;html=1;exitX=0.5;exitY=0;exitDx=0;exitDy=0;exitPerimeter=0;entryX=1;entryY=0.5;entryDx=0;entryDy=0;curved=0;strokeColor=default;align=center;verticalAlign=middle;fontFamily=Helvetica;fontSize=11;fontColor=default;labelBackgroundColor=default;endArrow=none;endFill=0;" edge="1" parent="1" source="6so-qmD7fdGU7Z9m0W5g-6" target="6so-qmD7fdGU7Z9m0W5g-11">
          <mxGeometry relative="1" as="geometry" />
        </mxCell>
        <mxCell id="6so-qmD7fdGU7Z9m0W5g-24" style="edgeStyle=orthogonalEdgeStyle;rounded=1;orthogonalLoop=1;jettySize=auto;html=1;exitX=0.5;exitY=0;exitDx=0;exitDy=0;exitPerimeter=0;entryX=1;entryY=0.5;entryDx=0;entryDy=0;strokeColor=default;align=center;verticalAlign=middle;fontFamily=Helvetica;fontSize=11;fontColor=default;labelBackgroundColor=default;endArrow=none;curved=0;endFill=0;" edge="1" parent="1" source="6so-qmD7fdGU7Z9m0W5g-6" target="6so-qmD7fdGU7Z9m0W5g-9">
          <mxGeometry relative="1" as="geometry">
            <Array as="points">
              <mxPoint x="779" y="-920" />
              <mxPoint x="780" y="-920" />
              <mxPoint x="780" y="-1070" />
            </Array>
          </mxGeometry>
        </mxCell>
        <mxCell id="6so-qmD7fdGU7Z9m0W5g-25" style="edgeStyle=orthogonalEdgeStyle;rounded=1;orthogonalLoop=1;jettySize=auto;html=1;exitX=0.5;exitY=0;exitDx=0;exitDy=0;exitPerimeter=0;entryX=1;entryY=0.5;entryDx=0;entryDy=0;strokeColor=default;align=center;verticalAlign=middle;fontFamily=Helvetica;fontSize=11;fontColor=default;labelBackgroundColor=default;endArrow=none;curved=0;endFill=0;" edge="1" parent="1" source="6so-qmD7fdGU7Z9m0W5g-6" target="6so-qmD7fdGU7Z9m0W5g-16">
          <mxGeometry relative="1" as="geometry">
            <Array as="points">
              <mxPoint x="779" y="-1020" />
            </Array>
          </mxGeometry>
        </mxCell>
        <mxCell id="piwmQqDmo6Rh2XkabMkD-11" style="edgeStyle=orthogonalEdgeStyle;rounded=1;orthogonalLoop=1;jettySize=auto;html=1;exitX=0.5;exitY=0;exitDx=0;exitDy=0;exitPerimeter=0;entryX=1;entryY=0.5;entryDx=0;entryDy=0;strokeColor=default;align=center;verticalAlign=middle;fontFamily=Helvetica;fontSize=11;fontColor=default;labelBackgroundColor=default;endArrow=none;endFill=0;curved=0;" edge="1" parent="1" source="6so-qmD7fdGU7Z9m0W5g-6" target="6so-qmD7fdGU7Z9m0W5g-10">
          <mxGeometry relative="1" as="geometry">
            <Array as="points">
              <mxPoint x="779" y="-920" />
              <mxPoint x="720" y="-920" />
              <mxPoint x="720" y="-830" />
            </Array>
          </mxGeometry>
        </mxCell>
        <mxCell id="piwmQqDmo6Rh2XkabMkD-12" style="edgeStyle=orthogonalEdgeStyle;rounded=1;orthogonalLoop=1;jettySize=auto;html=1;exitX=0.5;exitY=0;exitDx=0;exitDy=0;exitPerimeter=0;entryX=1;entryY=0.5;entryDx=0;entryDy=0;strokeColor=default;align=center;verticalAlign=middle;fontFamily=Helvetica;fontSize=11;fontColor=default;labelBackgroundColor=default;endArrow=none;endFill=0;curved=0;" edge="1" parent="1" source="6so-qmD7fdGU7Z9m0W5g-6" target="6so-qmD7fdGU7Z9m0W5g-7">
          <mxGeometry relative="1" as="geometry">
            <Array as="points">
              <mxPoint x="779" y="-920" />
              <mxPoint x="630" y="-920" />
            </Array>
          </mxGeometry>
        </mxCell>
        <mxCell id="piwmQqDmo6Rh2XkabMkD-30" style="edgeStyle=orthogonalEdgeStyle;rounded=1;orthogonalLoop=1;jettySize=auto;html=1;exitX=0.5;exitY=0;exitDx=0;exitDy=0;exitPerimeter=0;entryX=1;entryY=0.5;entryDx=0;entryDy=0;strokeColor=default;align=center;verticalAlign=middle;fontFamily=Helvetica;fontSize=11;fontColor=default;labelBackgroundColor=default;endArrow=none;endFill=0;curved=0;" edge="1" parent="1" source="6so-qmD7fdGU7Z9m0W5g-6" target="piwmQqDmo6Rh2XkabMkD-25">
          <mxGeometry relative="1" as="geometry" />
        </mxCell>
        <mxCell id="6so-qmD7fdGU7Z9m0W5g-6" value="IA" style="shape=umlActor;verticalLabelPosition=bottom;verticalAlign=top;html=1;outlineConnect=0;fillColor=#dae8fc;strokeColor=#6c8ebf;" vertex="1" parent="1">
          <mxGeometry x="764" y="-900" width="30" height="60" as="geometry" />
        </mxCell>
        <mxCell id="6so-qmD7fdGU7Z9m0W5g-7" value="Organizar finanças" style="ellipse;whiteSpace=wrap;html=1;fillColor=#e1d5e7;strokeColor=#9673a6;" vertex="1" parent="1">
          <mxGeometry x="570" y="-940" width="110" height="40" as="geometry" />
        </mxCell>
        <mxCell id="6so-qmD7fdGU7Z9m0W5g-8" value="Criar os dados" style="ellipse;whiteSpace=wrap;html=1;fillColor=#f8cecc;strokeColor=#b85450;" vertex="1" parent="1">
          <mxGeometry x="144" y="-934" width="90" height="34" as="geometry" />
        </mxCell>
        <mxCell id="6so-qmD7fdGU7Z9m0W5g-9" value="Recomendar Estratégias" style="ellipse;whiteSpace=wrap;html=1;fillColor=#e1d5e7;strokeColor=#9673a6;" vertex="1" parent="1">
          <mxGeometry x="580" y="-1080" width="110" height="40" as="geometry" />
        </mxCell>
        <mxCell id="6so-qmD7fdGU7Z9m0W5g-10" value="Exportar Planilhas" style="ellipse;whiteSpace=wrap;html=1;fillColor=#d5e8d4;strokeColor=#82b366;" vertex="1" parent="1">
          <mxGeometry x="550" y="-850" width="110" height="40" as="geometry" />
        </mxCell>
        <mxCell id="6so-qmD7fdGU7Z9m0W5g-11" value="Monitorar Status Financeiros" style="ellipse;whiteSpace=wrap;html=1;fillColor=#e1d5e7;strokeColor=#9673a6;" vertex="1" parent="1">
          <mxGeometry x="570" y="-1140" width="110" height="40" as="geometry" />
        </mxCell>
        <mxCell id="6so-qmD7fdGU7Z9m0W5g-12" value="Autenticar Usuário" style="ellipse;whiteSpace=wrap;html=1;fillColor=#dae8fc;strokeColor=#6c8ebf;" vertex="1" parent="1">
          <mxGeometry x="144" y="-870" width="110" height="40" as="geometry" />
        </mxCell>
        <mxCell id="6so-qmD7fdGU7Z9m0W5g-13" value="Personalizar Metas" style="ellipse;whiteSpace=wrap;html=1;fillColor=#fff2cc;strokeColor=#d6b656;" vertex="1" parent="1">
          <mxGeometry x="144" y="-480" width="110" height="40" as="geometry" />
        </mxCell>
        <mxCell id="6so-qmD7fdGU7Z9m0W5g-14" value="Manter Histórico" style="ellipse;whiteSpace=wrap;html=1;fillColor=#d5e8d4;strokeColor=#82b366;" vertex="1" parent="1">
          <mxGeometry x="362" y="-840" width="110" height="40" as="geometry" />
        </mxCell>
        <mxCell id="6so-qmD7fdGU7Z9m0W5g-15" value="Classificar Despesas" style="ellipse;whiteSpace=wrap;html=1;fillColor=#fff2cc;strokeColor=#d6b656;" vertex="1" parent="1">
          <mxGeometry x="144" y="-724" width="110" height="40" as="geometry" />
        </mxCell>
        <mxCell id="6so-qmD7fdGU7Z9m0W5g-16" value="Simular Cenários" style="ellipse;whiteSpace=wrap;html=1;fillColor=#e1d5e7;strokeColor=#9673a6;" vertex="1" parent="1">
          <mxGeometry x="600" y="-1030" width="110" height="40" as="geometry" />
        </mxCell>
        <mxCell id="6so-qmD7fdGU7Z9m0W5g-17" value="&lt;font style=&quot;font-size: 20px;&quot;&gt;IA&#39;s Conta&lt;/font&gt;" style="text;align=center;fontStyle=1;verticalAlign=middle;spacingLeft=3;spacingRight=3;strokeColor=none;rotatable=0;points=[[0,0.5],[1,0.5]];portConstraint=eastwest;html=1;fontColor=light-dark(#000000,#FFFFFF);" vertex="1" parent="1">
          <mxGeometry x="371" y="-1160" width="86" height="30" as="geometry" />
        </mxCell>
        <mxCell id="3FKWnoWOgEJZbtEkNHEX-1" style="edgeStyle=orthogonalEdgeStyle;rounded=0;orthogonalLoop=1;jettySize=auto;html=1;exitX=0.5;exitY=1;exitDx=0;exitDy=0;" edge="1" parent="1" source="6so-qmD7fdGU7Z9m0W5g-14" target="6so-qmD7fdGU7Z9m0W5g-14">
          <mxGeometry relative="1" as="geometry" />
        </mxCell>
        <mxCell id="piwmQqDmo6Rh2XkabMkD-2" value="Cadastrar usuários" style="ellipse;whiteSpace=wrap;html=1;fillColor=#dae8fc;strokeColor=#6c8ebf;" vertex="1" parent="1">
          <mxGeometry x="156" y="-790" width="86" height="40" as="geometry" />
        </mxCell>
        <mxCell id="piwmQqDmo6Rh2XkabMkD-3" value="&amp;lt;&amp;lt;include&amp;gt;&amp;gt;" style="html=1;verticalAlign=bottom;labelBackgroundColor=none;endArrow=open;endFill=0;dashed=1;rounded=0;exitX=0.5;exitY=1;exitDx=0;exitDy=0;entryX=0.5;entryY=0;entryDx=0;entryDy=0;" edge="1" parent="1" source="6so-qmD7fdGU7Z9m0W5g-12" target="piwmQqDmo6Rh2XkabMkD-2">
          <mxGeometry x="0.2535" y="4" width="160" relative="1" as="geometry">
            <mxPoint x="364" y="-770" as="sourcePoint" />
            <mxPoint x="524" y="-770" as="targetPoint" />
            <mxPoint as="offset" />
          </mxGeometry>
        </mxCell>
        <mxCell id="piwmQqDmo6Rh2XkabMkD-6" value="Inserir dados financeiros" style="ellipse;whiteSpace=wrap;html=1;fillColor=#fff2cc;strokeColor=#d6b656;" vertex="1" parent="1">
          <mxGeometry x="154" y="-580" width="90" height="50" as="geometry" />
        </mxCell>
        <mxCell id="piwmQqDmo6Rh2XkabMkD-14" value="&amp;lt;&amp;lt;include&amp;gt;&amp;gt;" style="html=1;verticalAlign=bottom;labelBackgroundColor=none;endArrow=open;endFill=0;dashed=1;rounded=0;exitX=0.5;exitY=0;exitDx=0;exitDy=0;entryX=0.5;entryY=1;entryDx=0;entryDy=0;" edge="1" parent="1" source="6so-qmD7fdGU7Z9m0W5g-13" target="piwmQqDmo6Rh2XkabMkD-6">
          <mxGeometry x="-0.2" width="160" relative="1" as="geometry">
            <mxPoint x="424" y="-650" as="sourcePoint" />
            <mxPoint x="374" y="-610" as="targetPoint" />
            <mxPoint as="offset" />
          </mxGeometry>
        </mxCell>
        <mxCell id="piwmQqDmo6Rh2XkabMkD-21" value="&amp;lt;&amp;lt;include&amp;gt;&amp;gt;" style="html=1;verticalAlign=bottom;labelBackgroundColor=none;endArrow=open;endFill=0;dashed=1;rounded=0;exitX=1;exitY=0.5;exitDx=0;exitDy=0;entryX=0;entryY=0.5;entryDx=0;entryDy=0;" edge="1" parent="1" source="piwmQqDmo6Rh2XkabMkD-2" target="6so-qmD7fdGU7Z9m0W5g-14">
          <mxGeometry x="0.0767" y="4" width="160" relative="1" as="geometry">
            <mxPoint x="284" y="-850" as="sourcePoint" />
            <mxPoint x="284" y="-810" as="targetPoint" />
            <mxPoint as="offset" />
          </mxGeometry>
        </mxCell>
        <mxCell id="piwmQqDmo6Rh2XkabMkD-22" value="Gerar Relatório" style="ellipse;whiteSpace=wrap;html=1;fillColor=#d5e8d4;strokeColor=#82b366;" vertex="1" parent="1">
          <mxGeometry x="362" y="-740" width="110" height="40" as="geometry" />
        </mxCell>
        <mxCell id="piwmQqDmo6Rh2XkabMkD-24" value="Apagar os dados" style="ellipse;whiteSpace=wrap;html=1;fillColor=#f8cecc;strokeColor=#b85450;" vertex="1" parent="1">
          <mxGeometry x="129" y="-1150" width="90" height="40" as="geometry" />
        </mxCell>
        <mxCell id="piwmQqDmo6Rh2XkabMkD-25" value="Ver os dados" style="ellipse;whiteSpace=wrap;html=1;fillColor=#f8cecc;strokeColor=#b85450;" vertex="1" parent="1">
          <mxGeometry x="139" y="-1006" width="80" height="36" as="geometry" />
        </mxCell>
        <mxCell id="piwmQqDmo6Rh2XkabMkD-26" value="Personalizar os dados" style="ellipse;whiteSpace=wrap;html=1;fillColor=#f8cecc;strokeColor=#b85450;" vertex="1" parent="1">
          <mxGeometry x="126.5" y="-1090" width="105" height="40" as="geometry" />
        </mxCell>
        <mxCell id="piwmQqDmo6Rh2XkabMkD-38" value="&amp;lt;&amp;lt;include&amp;gt;&amp;gt;" style="html=1;verticalAlign=bottom;labelBackgroundColor=none;endArrow=open;endFill=0;dashed=1;rounded=0;exitX=0;exitY=0.5;exitDx=0;exitDy=0;entryX=0;entryY=0;entryDx=0;entryDy=0;curved=1;" edge="1" parent="1" source="piwmQqDmo6Rh2XkabMkD-25" target="piwmQqDmo6Rh2XkabMkD-6">
          <mxGeometry x="0.7253" y="4" width="160" relative="1" as="geometry">
            <mxPoint x="340" y="-640" as="sourcePoint" />
            <mxPoint x="340" y="-590" as="targetPoint" />
            <mxPoint as="offset" />
            <Array as="points">
              <mxPoint x="70" y="-780" />
            </Array>
          </mxGeometry>
        </mxCell>
        <mxCell id="piwmQqDmo6Rh2XkabMkD-39" value="&amp;lt;&amp;lt;extend&amp;gt;&amp;gt;" style="html=1;verticalAlign=bottom;labelBackgroundColor=none;endArrow=open;endFill=0;dashed=1;rounded=0;exitX=0;exitY=1;exitDx=0;exitDy=0;entryX=1;entryY=0.5;entryDx=0;entryDy=0;" edge="1" parent="1" source="6so-qmD7fdGU7Z9m0W5g-10" target="piwmQqDmo6Rh2XkabMkD-22">
          <mxGeometry x="0.1871" y="-2" width="160" relative="1" as="geometry">
            <mxPoint x="530" y="-800" as="sourcePoint" />
            <mxPoint x="530" y="-750" as="targetPoint" />
            <mxPoint as="offset" />
          </mxGeometry>
        </mxCell>
        <mxCell id="piwmQqDmo6Rh2XkabMkD-41" value="&amp;lt;&amp;lt;include&amp;gt;&amp;gt;" style="html=1;verticalAlign=bottom;labelBackgroundColor=none;endArrow=open;endFill=0;dashed=1;rounded=0;exitX=0;exitY=0.5;exitDx=0;exitDy=0;entryX=0;entryY=0.5;entryDx=0;entryDy=0;curved=1;" edge="1" parent="1" source="6so-qmD7fdGU7Z9m0W5g-8" target="piwmQqDmo6Rh2XkabMkD-6">
          <mxGeometry x="0.7954" width="160" relative="1" as="geometry">
            <mxPoint x="409" y="-760" as="sourcePoint" />
            <mxPoint x="437" y="-345" as="targetPoint" />
            <mxPoint as="offset" />
            <Array as="points">
              <mxPoint x="70" y="-760" />
              <mxPoint x="50" y="-590" />
            </Array>
          </mxGeometry>
        </mxCell>
        <mxCell id="piwmQqDmo6Rh2XkabMkD-42" value="&amp;lt;&amp;lt;include&amp;gt;&amp;gt;" style="html=1;verticalAlign=bottom;labelBackgroundColor=none;endArrow=open;endFill=0;dashed=1;rounded=0;exitX=0.5;exitY=1;exitDx=0;exitDy=0;entryX=0.5;entryY=0;entryDx=0;entryDy=0;" edge="1" parent="1" source="piwmQqDmo6Rh2XkabMkD-26" target="piwmQqDmo6Rh2XkabMkD-25">
          <mxGeometry x="0.0901" y="4" width="160" relative="1" as="geometry">
            <mxPoint x="330" y="-1000" as="sourcePoint" />
            <mxPoint x="330" y="-1050" as="targetPoint" />
            <mxPoint as="offset" />
          </mxGeometry>
        </mxCell>
        <mxCell id="piwmQqDmo6Rh2XkabMkD-43" value="&amp;lt;&amp;lt;extend&amp;gt;&amp;gt;" style="html=1;verticalAlign=bottom;labelBackgroundColor=none;endArrow=open;endFill=0;dashed=1;rounded=0;exitX=0;exitY=0.5;exitDx=0;exitDy=0;entryX=1;entryY=0.5;entryDx=0;entryDy=0;" edge="1" parent="1" source="6so-qmD7fdGU7Z9m0W5g-16" target="piwmQqDmo6Rh2XkabMkD-25">
          <mxGeometry x="-0.2" width="160" relative="1" as="geometry">
            <mxPoint x="370" y="-970" as="sourcePoint" />
            <mxPoint x="370" y="-1020" as="targetPoint" />
            <mxPoint as="offset" />
            <Array as="points">
              <mxPoint x="410" y="-1010" />
            </Array>
          </mxGeometry>
        </mxCell>
        <mxCell id="piwmQqDmo6Rh2XkabMkD-44" value="&amp;lt;&amp;lt;extend&amp;gt;&amp;gt;" style="html=1;verticalAlign=bottom;labelBackgroundColor=none;endArrow=open;endFill=0;dashed=1;rounded=0;exitX=0;exitY=0.5;exitDx=0;exitDy=0;entryX=0.903;entryY=0.326;entryDx=0;entryDy=0;entryPerimeter=0;" edge="1" parent="1" source="6so-qmD7fdGU7Z9m0W5g-9" target="piwmQqDmo6Rh2XkabMkD-25">
          <mxGeometry x="-0.2" width="160" relative="1" as="geometry">
            <mxPoint x="420" y="-1000" as="sourcePoint" />
            <mxPoint x="420" y="-1050" as="targetPoint" />
            <mxPoint as="offset" />
          </mxGeometry>
        </mxCell>
        <mxCell id="piwmQqDmo6Rh2XkabMkD-45" value="&amp;lt;&amp;lt;include&amp;gt;&amp;gt;" style="html=1;verticalAlign=bottom;labelBackgroundColor=none;endArrow=open;endFill=0;dashed=1;rounded=0;exitX=0;exitY=0.5;exitDx=0;exitDy=0;entryX=0.744;entryY=0.124;entryDx=0;entryDy=0;entryPerimeter=0;" edge="1" parent="1" source="6so-qmD7fdGU7Z9m0W5g-11" target="piwmQqDmo6Rh2XkabMkD-25">
          <mxGeometry x="-0.2" width="160" relative="1" as="geometry">
            <mxPoint x="500" y="-1020" as="sourcePoint" />
            <mxPoint x="500" y="-1070" as="targetPoint" />
            <mxPoint as="offset" />
          </mxGeometry>
        </mxCell>
        <mxCell id="piwmQqDmo6Rh2XkabMkD-46" value="&amp;lt;&amp;lt;extend&amp;gt;&amp;gt;" style="html=1;verticalAlign=bottom;labelBackgroundColor=none;endArrow=open;endFill=0;dashed=1;rounded=0;exitX=0;exitY=0.5;exitDx=0;exitDy=0;entryX=1;entryY=1;entryDx=0;entryDy=0;" edge="1" parent="1" source="6so-qmD7fdGU7Z9m0W5g-7" target="piwmQqDmo6Rh2XkabMkD-25">
          <mxGeometry x="-0.2" width="160" relative="1" as="geometry">
            <mxPoint x="560" y="-740" as="sourcePoint" />
            <mxPoint x="560" y="-790" as="targetPoint" />
            <mxPoint as="offset" />
          </mxGeometry>
        </mxCell>
        <mxCell id="piwmQqDmo6Rh2XkabMkD-47" value="&amp;lt;&amp;lt;include&amp;gt;&amp;gt;" style="html=1;verticalAlign=bottom;labelBackgroundColor=none;endArrow=open;endFill=0;dashed=1;rounded=0;exitX=1;exitY=0.5;exitDx=0;exitDy=0;entryX=1;entryY=0.5;entryDx=0;entryDy=0;curved=1;" edge="1" parent="1" source="piwmQqDmo6Rh2XkabMkD-24" target="6so-qmD7fdGU7Z9m0W5g-8">
          <mxGeometry x="-0.5775" y="-28" width="160" relative="1" as="geometry">
            <mxPoint x="290" y="-850" as="sourcePoint" />
            <mxPoint x="290" y="-900" as="targetPoint" />
            <mxPoint as="offset" />
            <Array as="points">
              <mxPoint x="430" y="-1080" />
            </Array>
          </mxGeometry>
        </mxCell>
        <mxCell id="piwmQqDmo6Rh2XkabMkD-49" value="&amp;lt;&amp;lt;include&amp;gt;&amp;gt;" style="html=1;verticalAlign=bottom;labelBackgroundColor=none;endArrow=open;endFill=0;dashed=1;rounded=0;exitX=0.5;exitY=1;exitDx=0;exitDy=0;entryX=0.5;entryY=0;entryDx=0;entryDy=0;curved=1;" edge="1" parent="1" source="piwmQqDmo6Rh2XkabMkD-25" target="6so-qmD7fdGU7Z9m0W5g-14">
          <mxGeometry x="0.0904" y="-15" width="160" relative="1" as="geometry">
            <mxPoint x="310" y="-820" as="sourcePoint" />
            <mxPoint x="310" y="-870" as="targetPoint" />
            <mxPoint as="offset" />
            <Array as="points">
              <mxPoint x="340" y="-920" />
            </Array>
          </mxGeometry>
        </mxCell>
        <mxCell id="piwmQqDmo6Rh2XkabMkD-51" value="&lt;font style=&quot;font-size: 8px;&quot;&gt;Se o usuário desejar&lt;/font&gt;" style="whiteSpace=wrap;html=1;shape=mxgraph.basic.document" vertex="1" parent="1">
          <mxGeometry x="550" y="-750" width="60" height="26" as="geometry" />
        </mxCell>
        <mxCell id="piwmQqDmo6Rh2XkabMkD-53" value="" style="endArrow=none;dashed=1;html=1;dashPattern=1 3;strokeWidth=2;rounded=0;entryX=0.5;entryY=0;entryDx=0;entryDy=0;entryPerimeter=0;" edge="1" parent="1" target="piwmQqDmo6Rh2XkabMkD-51">
          <mxGeometry width="50" height="50" relative="1" as="geometry">
            <mxPoint x="540" y="-790" as="sourcePoint" />
            <mxPoint x="460" y="-840" as="targetPoint" />
          </mxGeometry>
        </mxCell>
        <mxCell id="piwmQqDmo6Rh2XkabMkD-54" value="&lt;font style=&quot;font-size: 8px;&quot;&gt;Se o usuário desejar&lt;/font&gt;" style="whiteSpace=wrap;html=1;shape=mxgraph.basic.document" vertex="1" parent="1">
          <mxGeometry x="500" y="-1090" width="60" height="26" as="geometry" />
        </mxCell>
        <mxCell id="piwmQqDmo6Rh2XkabMkD-55" value="" style="endArrow=none;dashed=1;html=1;rounded=0;exitX=0.5;exitY=0;exitDx=0;exitDy=0;exitPerimeter=0;" edge="1" parent="1" source="piwmQqDmo6Rh2XkabMkD-54">
          <mxGeometry width="50" height="50" relative="1" as="geometry">
            <mxPoint x="410" y="-790" as="sourcePoint" />
            <mxPoint x="510" y="-1100" as="targetPoint" />
          </mxGeometry>
        </mxCell>
        <mxCell id="piwmQqDmo6Rh2XkabMkD-58" value="" style="endArrow=none;dashed=1;html=1;rounded=0;entryX=0.5;entryY=1;entryDx=0;entryDy=0;entryPerimeter=0;" edge="1" parent="1" target="piwmQqDmo6Rh2XkabMkD-54">
          <mxGeometry width="50" height="50" relative="1" as="geometry">
            <mxPoint x="540" y="-1010" as="sourcePoint" />
            <mxPoint x="460" y="-840" as="targetPoint" />
          </mxGeometry>
        </mxCell>
        <mxCell id="piwmQqDmo6Rh2XkabMkD-59" value="" style="endArrow=none;dashed=1;html=1;rounded=0;entryX=0.309;entryY=1.059;entryDx=0;entryDy=0;entryPerimeter=0;" edge="1" parent="1" target="piwmQqDmo6Rh2XkabMkD-54">
          <mxGeometry width="50" height="50" relative="1" as="geometry">
            <mxPoint x="520" y="-930" as="sourcePoint" />
            <mxPoint x="540" y="-1020" as="targetPoint" />
          </mxGeometry>
        </mxCell>
        <mxCell id="piwmQqDmo6Rh2XkabMkD-60" value="&amp;lt;&amp;lt;include&amp;gt;&amp;gt;" style="html=1;verticalAlign=bottom;labelBackgroundColor=none;endArrow=open;endFill=0;dashed=1;rounded=0;exitX=0.5;exitY=0;exitDx=0;exitDy=0;entryX=0.5;entryY=1;entryDx=0;entryDy=0;" edge="1" parent="1" source="piwmQqDmo6Rh2XkabMkD-22" target="6so-qmD7fdGU7Z9m0W5g-14">
          <mxGeometry width="160" relative="1" as="geometry">
            <mxPoint x="350" y="-790" as="sourcePoint" />
            <mxPoint x="510" y="-790" as="targetPoint" />
          </mxGeometry>
        </mxCell>
        <mxCell id="piwmQqDmo6Rh2XkabMkD-61" value="&amp;lt;&amp;lt;include&amp;gt;&amp;gt;" style="html=1;verticalAlign=bottom;labelBackgroundColor=none;endArrow=open;endFill=0;dashed=1;rounded=0;exitX=0;exitY=0;exitDx=0;exitDy=0;entryX=0;entryY=0.5;entryDx=0;entryDy=0;curved=1;" edge="1" parent="1" source="6so-qmD7fdGU7Z9m0W5g-15" target="piwmQqDmo6Rh2XkabMkD-25">
          <mxGeometry x="-0.9373" y="4" width="160" relative="1" as="geometry">
            <mxPoint x="340" y="-580" as="sourcePoint" />
            <mxPoint x="340" y="-640" as="targetPoint" />
            <Array as="points">
              <mxPoint x="30" y="-870" />
            </Array>
            <mxPoint as="offset" />
          </mxGeometry>
        </mxCell>
      </root>
    </mxGraphModel>
  </diagram>
</mxfile>
